<?xml version="1.0" encoding="UTF-8"?>
<svg id="Layer_1" xmlns="http://www.w3.org/2000/svg" version="1.1" viewBox="0 0 586.11 79.86">
  <!-- Generator: Adobe Illustrator 29.8.1, SVG Export Plug-In . SVG Version: 2.1.1 Build 2)  -->
  <defs>
    <style>
      .st0 {
        fill: #fff;
      }

      .st1 {
        fill: none;
        stroke: #fff;
        stroke-miterlimit: 10;
        stroke-width: .5px;
      }
    </style>
  </defs>
  <path class="st0" d="M519.18,45.26v8.53h-1.96v-5.78l-1.22.98-1.06-1.31,2.95-2.42h1.3-.01Z"/>
  <path class="st0" d="M528.17,48.5c0,1.9-1.26,3.95-3.35,5.41l-1.67-.74c1-.78,1.8-1.64,2.26-2.56-.47.16-1.02.17-1.54.03-1.1-.27-1.85-1.27-1.85-2.52,0-1.53,1.25-2.86,3.01-2.86,1.9,0,3.14,1.4,3.14,3.25h0ZM525.04,49.34c.69,0,1.25-.41,1.25-1.12s-.47-1.31-1.21-1.31c-.7,0-1.16.54-1.16,1.25s.46,1.18,1.12,1.18Z"/>
  <path class="st0" d="M536.24,48.5c0,1.9-1.26,3.95-3.35,5.41l-1.67-.74c1-.78,1.8-1.64,2.26-2.56-.47.16-1.02.17-1.54.03-1.1-.27-1.85-1.27-1.85-2.52,0-1.53,1.25-2.86,3.01-2.86,1.9,0,3.14,1.4,3.14,3.25h0ZM533.11,49.34c.69,0,1.25-.41,1.25-1.12s-.47-1.31-1.21-1.31c-.7,0-1.16.54-1.16,1.25s.46,1.18,1.12,1.18Z"/>
  <path class="st0" d="M543.31,45.37v1.57h-2.88v1.64c.21,0,.27-.03.44-.03,1.69,0,2.8,1.16,2.8,2.61s-1.05,2.74-2.92,2.74c-.9,0-1.77-.22-2.53-.72v-1.64c.57.4,1.51.79,2.15.79.89,0,1.31-.58,1.31-1.16,0-.84-.78-1.26-1.69-1.26-.44,0-.86.07-1.19.21v-4.75s4.51,0,4.51,0Z"/>
  <path class="st0" d="M550.64,49.9c0,.35-.12.66-.38.91s-.56.38-.91.38-.66-.13-.91-.38-.38-.56-.38-.91c0-.71.59-1.29,1.29-1.29s1.29.58,1.29,1.29Z"/>
  <path class="st0" d="M559.67,47.85c0,1.64-1.44,3.3-2.23,4.27h2.85v1.67h-6.04v-.14c1.33-1.36,3.49-3.65,3.49-5.33,0-.94-.63-1.38-1.26-1.38-.68,0-1.37.37-2,1.1v-1.85c.94-.68,1.68-.93,2.51-.93,1.54,0,2.68,1.04,2.68,2.59Z"/>
  <path class="st0" d="M568.35,49.58c0,2.84-1.38,4.32-3.1,4.32s-3.1-1.53-3.1-4.31,1.44-4.33,3.11-4.33,3.09,1.56,3.09,4.32h0ZM565.25,52.32c.68,0,1.06-.74,1.06-2.7,0-1.78-.3-2.78-1.07-2.78-.62,0-1.06.74-1.06,2.75,0,1.85.3,2.73,1.07,2.73Z"/>
  <path class="st0" d="M575.54,47.85c0,1.64-1.44,3.3-2.23,4.27h2.85v1.67h-6.04v-.14c1.33-1.36,3.49-3.65,3.49-5.33,0-.94-.63-1.38-1.26-1.38-.68,0-1.37.37-2,1.1v-1.85c.94-.68,1.68-.93,2.51-.93,1.54,0,2.68,1.04,2.68,2.59Z"/>
  <path class="st0" d="M583.34,45.37v1.57h-2.88v1.64c.21,0,.27-.03.44-.03,1.69,0,2.8,1.16,2.8,2.61s-1.05,2.74-2.93,2.74c-.9,0-1.76-.22-2.53-.72v-1.64c.57.4,1.51.79,2.15.79.89,0,1.31-.58,1.31-1.16,0-.84-.78-1.26-1.69-1.26-.45,0-.86.07-1.19.21v-4.75h4.52Z"/>
  <path class="st0" d="M442.69,62.49c1.11,0,1.78.58,1.78,1.54,0,1.07-.73,1.54-1.9,1.54h-.75v2.37h-.78v-5.45h1.66-.01ZM441.81,64.89h.72c.91,0,1.13-.35,1.13-.87s-.26-.84-1.13-.84h-.72v1.71Z"/>
  <path class="st0" d="M447.19,62.49c1.09,0,1.66.72,1.66,1.52,0,.63-.31,1.1-.91,1.34.32.21.47.34,1,1.14l.96,1.46h-.93l-.86-1.34c-.55-.86-.9-1.03-1.28-1.03h-.35v2.38h-.78v-5.45h1.5v-.02ZM446.47,64.88h.5c.57,0,1.07-.14,1.07-.87,0-.53-.32-.83-.91-.83h-.66v1.7Z"/>
  <path class="st0" d="M454.1,62.49v.7h-2.31v1.66h2.23v.7h-2.23v1.7h2.38v.7h-3.17v-5.45h3.1Z"/>
  <path class="st0" d="M455.92,62.49l1.66,3.83,1.62-3.83h.78l-2.3,5.49h-.18l-2.35-5.49h.78-.01Z"/>
  <path class="st0" d="M464.17,62.49v.7h-2.31v1.66h2.23v.7h-2.23v1.7h2.38v.7h-3.17v-5.45h3.1Z"/>
  <path class="st0" d="M466.36,62.49l3.65,4.23v-4.23h.75v5.45h-.68l-3.62-4.2v4.2h-.75v-5.45h.65Z"/>
  <path class="st0" d="M476.51,62.49v.69h-1.9v4.77h-.78v-4.77h-1.87v-.69h4.56-.01Z"/>
  <path class="st0" d="M478.49,62.49v5.45h-.78v-5.45h.78Z"/>
  <path class="st0" d="M480.87,62.49l3.65,4.23v-4.23h.75v5.45h-.68l-3.62-4.2v4.2h-.75v-5.45h.65Z"/>
  <path class="st0" d="M491.61,63.68c-.62-.37-1.32-.57-1.93-.57-1.18,0-2.12.9-2.12,2.1s.9,2.11,2.15,2.11c.42,0,.63-.05,1.23-.24v-1.14h-1.05v-.69h1.83v2.3c-.68.31-1.32.45-2,.45-2.07,0-2.98-1.46-2.98-2.75,0-1.53,1.17-2.85,2.95-2.85.62,0,1.11.11,1.92.46v.82Z"/>
  <path class="st0" d="M495.91,62.49l1.5,3.76,1.51-3.76h.74l1.52,3.76,1.49-3.76h.78l-2.21,5.49h-.17l-1.78-4.45-1.8,4.45h-.17l-2.2-5.49h.79Z"/>
  <path class="st0" d="M506.45,62.46l2.44,5.49h-.8l-.73-1.61h-2.32l-.69,1.61h-.8l2.34-5.49h.56ZM505.34,65.63h1.72l-.89-2.11-.83,2.11Z"/>
  <path class="st0" d="M511.51,62.49c1.09,0,1.66.72,1.66,1.52,0,.63-.31,1.1-.91,1.34.32.21.47.34,1,1.14l.96,1.46h-.93l-.86-1.34c-.55-.86-.9-1.03-1.28-1.03h-.35v2.38h-.78v-5.45h1.5v-.02ZM510.79,64.88h.5c.57,0,1.07-.14,1.07-.87,0-.53-.32-.83-.91-.83h-.66v1.7h0Z"/>
  <path class="st0" d="M516.31,67.56c0,.27-.22.49-.49.49-.25,0-.48-.21-.48-.48,0-.3.23-.49.48-.49s.49.21.49.48Z"/>
  <path class="st0" d="M522.82,62.8v.89c-.37-.36-.79-.57-1.28-.57s-.8.26-.8.63c0,.3.06.57.9,1.05,1.15.66,1.4,1.05,1.4,1.79,0,.8-.63,1.42-1.58,1.42-.54,0-1.04-.18-1.47-.5v-.99c.38.5.9.8,1.47.8.46,0,.8-.3.8-.72,0-.37-.1-.62-1.18-1.25-.81-.47-1.11-.9-1.11-1.58,0-.78.67-1.36,1.61-1.36.45,0,.88.14,1.26.38h-.02Z"/>
  <path class="st0" d="M525.29,62.49v2.36h3.06v-2.36h.78v5.45h-.78v-2.38h-3.06v2.38h-.78v-5.45s.78,0,.78,0Z"/>
  <path class="st0" d="M533.14,62.46l2.44,5.49h-.8l-.73-1.61h-2.32l-.69,1.61h-.8l2.34-5.49h.56ZM532.03,65.63h1.72l-.89-2.11-.83,2.11h0Z"/>
  <path class="st0" d="M538.36,62.49c1.11,0,1.77.58,1.77,1.54,0,1.07-.73,1.54-1.9,1.54h-.75v2.37h-.78v-5.45h1.66ZM537.48,64.89h.72c.91,0,1.13-.35,1.13-.87s-.26-.84-1.13-.84h-.72v1.71Z"/>
  <path class="st0" d="M542.16,62.49v5.45h-.78v-5.45h.78Z"/>
  <path class="st0" d="M544.54,62.49l3.65,4.23v-4.23h.75v5.45h-.68l-3.62-4.2v4.2h-.75v-5.45h.65,0Z"/>
  <path class="st0" d="M555.29,63.68c-.62-.37-1.32-.57-1.93-.57-1.18,0-2.12.9-2.12,2.1s.9,2.11,2.15,2.11c.42,0,.63-.05,1.23-.24v-1.14h-1.05v-.69h1.83v2.3c-.68.31-1.32.45-2,.45-2.07,0-2.98-1.46-2.98-2.75,0-1.53,1.17-2.85,2.95-2.85.62,0,1.11.11,1.92.46v.82Z"/>
  <path class="st0" d="M561.07,62.49c1.11,0,1.78.58,1.78,1.54,0,1.07-.73,1.54-1.9,1.54h-.75v2.37h-.78v-5.45h1.66,0ZM560.19,64.89h.72c.91,0,1.13-.35,1.13-.87s-.26-.84-1.13-.84h-.72v1.71Z"/>
  <path class="st0" d="M567.16,62.49v.7h-2.31v1.66h2.23v.7h-2.23v1.7h2.38v.7h-3.17v-5.45h3.1Z"/>
  <path class="st0" d="M571.14,62.46l2.44,5.49h-.8l-.73-1.61h-2.32l-.69,1.61h-.8l2.34-5.49h.56ZM570.02,65.63h1.72l-.89-2.11-.83,2.11h0Z"/>
  <path class="st0" d="M579.01,62.87v.82c-.58-.33-1.22-.54-1.89-.54-1.33,0-2.16,1.01-2.16,2.09s.79,2.06,2.15,2.06c.71,0,1.36-.22,1.95-.61v.86c-.64.34-1.29.48-1.98.48-2.01,0-2.93-1.51-2.93-2.79,0-1.6,1.33-2.81,2.95-2.81.61,0,1.26.15,1.91.45h0Z"/>
  <path class="st0" d="M583.66,62.49v.7h-2.31v1.66h2.23v.7h-2.23v1.7h2.38v.7h-3.17v-5.45h3.1Z"/>
  <path class="st0" d="M586.11,67.56c0,.27-.22.49-.49.49-.25,0-.48-.21-.48-.48,0-.3.23-.49.48-.49s.49.21.49.48Z"/>
  <line class="st1" x1="583.68" y1="79.61" y2="79.61"/>
  <path class="st0" d="M568.65,0c-8.42,0-15.23,6.38-15.23,19.65,0,8.26,2.7,13.91,6.87,16.93h16.75c4.13-3,6.83-8.61,6.83-16.93C583.87,6.5,577.07,0,568.65,0h0ZM568.65,31.07c-3.35,0-4.1-3.36-4.1-11.31,0-9.12,1.62-11.7,4.04-11.7,3.46,0,4.15,4.31,4.15,11.76,0,8.73-1.32,11.25-4.09,11.25Z"/>
  <path class="st0" d="M552.62,28.1c0,3.98-1.78,6.72-4.38,8.48h-21.06v-8.7c3,2.46,6.17,3.75,8.94,3.75,3.46,0,5.6-1.85,5.6-4.42,0-3.47-2.43-5.1-7.79-5.1v-6.15c5.19,0,7.15-1.96,7.15-4.54s-1.96-4.31-4.9-4.31c-2.77,0-5.65,1.12-7.96,2.63V2.41c3.86-1.79,7.32-2.41,10.67-2.41,7.84,0,13.09,3.81,13.09,10.19,0,3.3-2.25,6.77-5.3,8.51,4.38,2.24,5.94,5.54,5.94,9.4Z"/>
</svg>