<svg width="127" height="122" viewBox="0 0 127 122" fill="none" xmlns="http://www.w3.org/2000/svg">
<g clip-path="url(#clip0_3_44)">
<path d="M-6 132.967H6.10008V93.291C0.486985 105.757 -3.68082 119.026 -6 132.967Z" fill="#E87722"/>
<path d="M78.6333 16.2857C74.4991 18.4638 70.4657 20.843 66.5332 23.3563V132.966H78.6333V16.2857Z" fill="#E87722"/>
<path d="M30.2666 54.9894C25.8972 60.1499 21.8974 65.612 18.1666 71.2751V133H30.2666V54.9894Z" fill="#E87722"/>
<path d="M114.9 132.967H127V0C122.899 0.670194 118.9 1.54145 114.9 2.51323V132.967Z" fill="#E87722"/>
<path d="M102.833 6.03174C98.7329 7.40564 94.6995 8.91357 90.7334 10.5555V132.967H102.833V6.03174Z" fill="#E87722"/>
<path d="M42.3667 132.967H54.4668V31.9348C50.2654 35.2187 46.232 38.6702 42.3667 42.3228V132.967Z" fill="#E87722"/>
</g>
<defs>
<clipPath id="clip0_3_44">
<rect width="127" height="122" fill="white"/>
</clipPath>
</defs>
</svg>
